<?xml version="1.0" encoding="UTF-8"?>
<svg width="200px" height="200px" viewBox="0 0 24 24" version="1.1" xmlns="http://www.w3.org/2000/svg" xmlns:xlink="http://www.w3.org/1999/xlink">
    <title>QR Code Scanner</title>
    <g id="QR-Code-Scanner" stroke="none" stroke-width="1" fill="none" fill-rule="evenodd">
        <rect id="Background" fill="#E3F2FD" x="0" y="0" width="24" height="24" rx="4"></rect>
        <path d="M4,4 L8,4 L8,8 L4,8 L4,4 Z M6,6 L6,6.01 L6.01,6 L6,6 Z M4,16 L4,20 L8,20 L8,16 L4,16 Z M6,18 L6,18.01 L6.01,18 L6,18 Z M16,4 L20,4 L20,8 L16,8 L16,4 Z M18,6 L18,6.01 L18.01,6 L18,6 Z M16,16 L16,20 L20,20 L20,16 L16,16 Z M18,18 L18,18.01 L18.01,18 L18,18 Z M7,7 L7,9 L9,9 L9,7 L7,7 Z M15,7 L15,9 L17,9 L17,7 L15,7 Z M7,15 L7,17 L9,17 L9,15 L7,15 Z M11,7 L11,9 L13,9 L13,7 L11,7 Z M7,11 L7,13 L9,13 L9,11 L7,11 Z M15,15 L15,17 L17,17 L17,15 L15,15 Z M11,15 L11,17 L13,17 L13,15 L11,15 Z M15,11 L15,13 L17,13 L17,11 L15,11 Z M11,11 L11,13 L13,13 L13,11 L11,11 Z" id="QR-Code" fill="#1976D2" fill-rule="nonzero"></path>
        <path d="M9,9 L11,9 L11,11 L9,11 L9,9 Z M13,9 L15,9 L15,11 L13,11 L13,9 Z M9,13 L11,13 L11,15 L9,15 L9,13 Z M13,13 L15,13 L15,15 L13,15 L13,13 Z M9,17 L11,17 L11,19 L9,19 L9,17 Z M13,17 L15,17 L15,19 L13,19 L13,17 Z M17,9 L19,9 L19,11 L17,11 L17,9 Z M17,13 L19,13 L19,15 L17,15 L17,13 Z M17,17 L19,17 L19,19 L17,19 L17,17 Z" id="QR-Code-Corners" fill="#0D47A1" fill-rule="nonzero"></path>
    </g>
</svg>
